<?xml version="1.0" standalone="no"?>
<!DOCTYPE svg PUBLIC "-//W3C//DTD SVG 20010904//EN"
 "http://www.w3.org/TR/2001/REC-SVG-20010904/DTD/svg10.dtd">
<svg version="1.0" xmlns="http://www.w3.org/2000/svg"
 width="2557.000000pt" height="2557.000000pt" viewBox="0 0 2557.000000 2557.000000"
 preserveAspectRatio="xMidYMid meet">
<metadata>
Created by potrace 1.11, written by Peter Selinger 2001-2013
</metadata>
<g transform="translate(0.000000,2557.000000) scale(0.100000,-0.100000)"
fill="#000000" stroke="none">
<path d="M11990 25527 c-41 -24 -219 -127 -395 -229 -176 -101 -351 -202 -388
-224 -38 -21 -76 -43 -85 -49 -29 -17 -175 -102 -212 -122 -59 -34 -604 -349
-733 -425 -67 -39 -143 -82 -169 -97 -26 -14 -140 -80 -254 -146 -220 -128
-250 -145 -359 -207 -101 -58 -119 -68 -230 -133 -204 -118 -879 -507 -1175
-677 -58 -34 -117 -69 -132 -79 -15 -11 -29 -19 -32 -19 -4 0 -826 -474 -921
-531 -16 -10 -41 -24 -55 -32 -22 -11 -356 -204 -472 -272 -24 -14 -79 -45
-123 -70 -44 -26 -96 -55 -115 -67 -36 -21 -328 -190 -410 -237 -216 -124
-267 -153 -280 -162 -14 -8 -398 -230 -470 -272 -197 -112 -437 -251 -445
-257 -5 -4 -35 -21 -65 -37 -30 -17 -111 -63 -180 -103 -69 -40 -140 -81 -158
-92 -61 -34 -165 -94 -422 -243 -140 -81 -271 -156 -290 -167 -19 -10 -42 -23
-50 -28 -55 -34 -201 -120 -204 -120 -2 0 -66 -37 -142 -81 -77 -45 -161 -94
-189 -109 l-50 -27 0 -7444 0 -7444 310 -182 c171 -100 321 -188 335 -196 41
-23 91 -52 175 -102 90 -53 130 -77 195 -113 25 -14 56 -33 70 -42 14 -9 46
-29 71 -42 25 -14 137 -80 250 -145 112 -66 285 -168 384 -226 99 -58 351
-205 560 -328 209 -122 407 -238 441 -256 l61 -33 0 2500 c0 1375 2 2501 4
2503 4 3 628 363 709 409 19 11 76 44 125 73 50 29 110 63 135 77 25 14 131
76 237 137 106 61 198 114 205 116 11 4 13 -580 13 -3287 0 -2663 2 -3294 13
-3304 7 -7 81 -52 165 -100 84 -48 166 -94 182 -104 17 -9 128 -74 248 -144
120 -70 239 -138 265 -153 26 -14 110 -63 187 -108 132 -76 180 -105 265 -153
19 -10 122 -70 228 -131 106 -61 207 -120 225 -130 81 -46 692 -400 777 -450
52 -31 105 -60 118 -64 12 -5 22 -13 22 -18 0 -5 5 -9 11 -9 6 0 65 -32 132
-71 67 -40 139 -81 160 -93 30 -17 266 -153 646 -372 20 -12 194 -112 386
-224 193 -111 365 -211 383 -222 18 -10 66 -37 105 -60 40 -23 101 -58 135
-77 35 -20 71 -40 80 -46 15 -9 247 -142 262 -150 3 -2 5 739 5 1646 l0 1650
-65 38 c-36 20 -90 51 -120 68 -30 17 -154 88 -275 158 -121 71 -240 140 -265
153 -25 14 -121 70 -213 124 -93 54 -170 98 -172 98 -2 0 -33 18 -69 40 -36
22 -68 40 -72 40 -3 0 -25 13 -49 30 -24 16 -45 30 -48 30 -2 0 -71 39 -153
86 -82 48 -237 137 -345 200 -108 62 -218 126 -245 142 l-49 28 -1 8249 0
8249 145 85 c80 46 175 101 211 121 36 20 110 63 165 95 55 32 114 66 130 75
17 10 57 33 90 52 33 20 80 47 105 60 25 14 133 76 240 139 107 62 233 135
280 161 47 27 92 53 100 59 45 28 362 209 367 209 4 0 14 6 22 14 9 7 45 30
81 49 36 19 97 54 135 76 l70 41 0 1650 c0 908 0 1650 0 1650 0 0 -34 -20 -75
-43z m-4925 -9444 l0 -3297 -100 -59 c-55 -33 -124 -72 -153 -89 -30 -16 -118
-67 -195 -112 -326 -190 -971 -561 -976 -561 -2 0 -5 1484 -5 3297 l-1 3297
70 39 c39 22 126 72 195 112 69 40 197 114 285 165 461 266 813 470 840 486
17 10 32 18 35 18 3 1 5 -1483 5 -3296z"/>
<path d="M13495 23914 l0 -1646 55 -30 c30 -16 67 -37 82 -46 27 -17 202 -118
308 -178 30 -17 125 -72 210 -121 421 -244 902 -522 1090 -630 52 -30 102 -58
110 -63 8 -5 58 -34 110 -64 52 -31 113 -66 136 -79 l41 -25 0 -3299 0 -3299
-106 -61 c-58 -33 -209 -120 -336 -193 -126 -73 -243 -141 -260 -150 -16 -10
-54 -31 -83 -49 -29 -17 -54 -31 -56 -31 -2 0 -45 -25 -97 -55 -123 -73 -99
-59 -303 -177 -98 -57 -197 -114 -220 -127 -51 -30 -34 -20 -436 -251 -184
-106 -347 -201 -362 -211 -15 -10 -29 -19 -32 -19 -2 0 -37 -19 -78 -43 -40
-24 -93 -55 -118 -69 -56 -31 -299 -172 -340 -196 l-30 -19 83 -47 c45 -25
102 -58 127 -72 58 -34 269 -155 295 -171 11 -7 27 -15 35 -19 8 -4 37 -21 65
-38 27 -17 67 -40 87 -51 21 -11 77 -43 125 -72 49 -28 105 -60 126 -72 53
-30 74 -42 345 -200 134 -77 247 -141 250 -141 3 0 13 -6 21 -14 9 -7 48 -30
86 -51 62 -34 89 -49 160 -92 34 -20 336 -194 425 -246 47 -26 92 -52 100 -57
17 -11 288 -168 359 -208 26 -15 74 -42 107 -61 l61 -35 -1 -3300 -1 -3300
-105 -61 c-58 -34 -226 -132 -375 -217 -148 -86 -286 -165 -305 -177 -19 -11
-41 -24 -49 -28 -8 -4 -76 -42 -150 -86 -75 -43 -154 -89 -176 -102 -102 -57
-942 -543 -965 -558 -14 -8 -15 -192 -15 -1657 l-1 -1649 56 31 c30 18 165 96
300 173 135 78 319 185 410 237 91 52 252 145 358 207 106 61 207 120 225 130
17 10 151 87 296 171 146 84 279 160 295 170 17 10 220 127 451 260 231 134
434 251 450 260 17 9 75 43 130 75 55 32 156 90 225 130 69 40 213 123 320
185 208 121 232 135 331 191 70 40 92 52 224 129 50 29 194 112 320 185 127
73 313 181 415 239 101 59 187 111 190 116 3 4 5 1489 5 3299 0 1810 2 3291 4
3291 2 0 35 -18 73 -40 39 -22 74 -40 79 -40 5 0 9 -4 9 -10 0 -5 4 -10 9 -10
5 0 44 -20 85 -45 42 -25 78 -45 80 -45 2 0 33 -17 67 -38 35 -22 84 -50 109
-64 25 -14 113 -64 195 -113 144 -84 189 -110 265 -153 167 -94 428 -247 440
-258 13 -11 15 -302 14 -2508 0 -1373 2 -2496 6 -2496 3 0 10 4 16 9 5 5 30
20 56 34 55 30 451 262 488 286 14 8 35 21 47 28 44 23 529 306 563 328 19 13
55 34 80 48 25 13 83 47 130 74 47 28 337 198 645 378 308 181 567 332 575
337 8 5 67 39 130 76 l115 69 3 7440 2 7441 -222 129 c-123 70 -230 133 -240
138 -9 6 -29 17 -45 26 -15 8 -206 118 -423 244 -584 337 -772 446 -805 465
-17 9 -165 95 -330 190 -164 95 -308 178 -320 184 -11 6 -31 19 -45 27 -14 9
-162 95 -330 191 -168 97 -321 185 -340 197 -19 11 -42 24 -50 28 -8 4 -42 23
-75 43 -33 20 -67 39 -75 43 -8 4 -31 17 -50 28 -19 12 -123 72 -230 134 -107
62 -211 122 -230 133 -19 11 -57 33 -85 47 -27 15 -57 33 -66 41 -8 8 -18 14
-22 14 -4 0 -44 22 -89 49 -46 27 -272 158 -503 291 -231 134 -492 284 -580
335 -88 51 -176 102 -195 112 -19 11 -118 69 -220 128 -102 59 -200 115 -217
124 -18 8 -33 19 -33 23 0 4 -5 8 -11 8 -9 0 -102 52 -299 168 -19 11 -78 45
-130 75 -284 163 -590 340 -965 557 -231 133 -440 253 -465 267 -25 14 -49 29
-55 33 -5 4 -30 19 -55 32 -25 14 -117 67 -205 118 -88 51 -176 102 -195 113
-19 10 -72 41 -118 68 -45 27 -87 49 -92 49 -6 0 -10 5 -10 10 0 6 -4 10 -10
10 -5 0 -55 27 -111 60 -55 33 -102 60 -104 60 -2 0 -76 43 -165 95 -89 52
-164 95 -166 95 -2 0 -28 16 -58 35 -30 19 -57 35 -60 35 -2 0 -42 23 -89 50
-47 28 -89 50 -94 50 -5 0 -8 -715 -8 -1646z m5042 -4555 c21 -12 75 -43 121
-70 45 -27 87 -49 92 -49 6 0 10 -4 10 -10 0 -5 5 -10 11 -10 7 0 35 -14 63
-32 50 -31 77 -46 166 -96 25 -14 78 -45 118 -69 41 -24 76 -43 79 -43 2 0 24
-13 48 -30 24 -16 46 -30 49 -30 3 0 40 -20 82 -45 41 -25 78 -45 80 -45 3 0
17 -8 32 -19 34 -24 380 -224 404 -233 9 -4 20 -15 25 -25 6 -13 10 -6498 4
-6580 -1 -6 -63 24 -138 69 -76 44 -163 94 -193 111 -30 16 -72 41 -92 54 -21
12 -40 23 -43 23 -3 0 -24 12 -46 26 -23 14 -60 36 -82 49 -113 63 -792 457
-810 470 l-22 15 0 3295 c0 1812 1 3295 2 3295 1 0 19 -10 40 -21z"/>
<path d="M12740 21035 c-19 -12 -114 -67 -210 -123 -403 -231 -996 -573 -1010
-582 -8 -5 -48 -28 -88 -51 -41 -23 -75 -46 -78 -53 -2 -6 -3 -1497 -2 -3313
l3 -3301 120 70 c66 38 143 82 170 97 28 15 73 41 100 58 28 17 172 100 320
185 149 86 288 166 311 179 22 13 121 70 220 127 98 57 186 108 194 113 8 5
94 54 190 109 96 55 182 104 190 109 8 6 101 59 205 119 498 287 696 402 763
441 l72 42 0 2487 0 2487 -48 26 c-54 29 -784 449 -1002 577 -80 47 -158 92
-175 100 -16 8 -41 23 -55 32 -14 9 -54 33 -90 52 l-65 36 -35 -23z"/>
<path d="M11350 8648 l0 -3314 43 -22 c23 -12 62 -33 87 -48 44 -26 395 -229
455 -264 17 -9 136 -78 265 -152 129 -75 307 -177 395 -228 88 -51 165 -96
171 -101 10 -8 65 22 329 176 112 65 550 317 607 349 20 12 62 37 95 56 32 19
65 38 73 42 8 4 87 49 175 100 l160 93 0 2488 0 2489 -125 72 c-296 172 -587
340 -615 356 -16 9 -102 59 -190 110 -88 51 -180 104 -205 118 -25 14 -198
114 -385 222 -187 108 -464 268 -615 354 -151 87 -287 167 -302 177 -15 10
-29 19 -32 19 -2 0 -87 48 -188 106 -101 59 -186 108 -190 111 -5 2 -8 -1487
-8 -3309z"/>
</g>
</svg>
